<?xml version="1.0" standalone="no"?>
<!DOCTYPE svg PUBLIC "-//W3C//DTD SVG 1.1//EN" "http://www.w3.org/Graphics/SVG/1.1/DTD/svg11.dtd" >
<svg xmlns="http://www.w3.org/2000/svg">
<metadata>
This is a custom SVG webfont generated by Font Squirrel.
Copyright   : Font software Copyright 1990 1991 1998 Adobe Systems Incorporated Typeface designs Copyright The Monotype Corporation All rights reserved
Foundry URL : httpwwwmonotypeimagingcom
</metadata>
<defs>
<font id="webfontoFcoAzcT" horiz-adv-x="1024" >
<font-face units-per-em="2048" ascent="1397" descent="-651" />
<missing-glyph horiz-adv-x="569" />
<glyph unicode=" "  horiz-adv-x="569" />
<glyph unicode="&#x09;" horiz-adv-x="569" />
<glyph unicode="&#xa0;" horiz-adv-x="569" />
<glyph unicode="!" horiz-adv-x="555" d="M401 106.5q0 -49.5 -33.5 -87t-88.5 -37.5q-51 0 -89 33.5t-38 88.5q0 51 34.5 89t89.5 38q57 0 91 -37.5t34 -87zM279 1415q113 0 112 -285q0 -250 -69 -626q-2 -23 -15.5 -62t-25.5 -39q-37 0 -77 264.5t-40 454.5q0 293 115 293z" />
<glyph unicode="&#x22;" horiz-adv-x="724" d="M141 879l-47 274v244h205v-244l-47 -274h-111zM473 879l-47 274v244h205v-244l-47 -274h-111z" />
<glyph unicode="#" horiz-adv-x="1366" d="M86 840h315l84 399h148l-82 -399h397l84 399h144l-82 -399h186v-142h-217l-72 -348h289v-145h-317l-84 -395h-146l82 395h-397l-82 -395h-148l82 395h-184v145h215l72 348h-287v142zM918 698h-398l-74 -348h400z" />
<glyph unicode="$" horiz-adv-x="1110" d="M963 1221v-230q-127 133 -306 170v-405q178 -49 274.5 -154.5t96.5 -232.5q0 -131 -85 -242t-286 -147v-222h-168v222q-178 18 -385 145v252q84 -76 164 -123t122 -61.5t99 -26.5v440q-209 59 -296 159.5t-87 213.5q0 125 98.5 233.5t284.5 128.5v74h168v-74 q200 -30 306 -120zM489 809v352q-86 -8 -135 -61t-49 -109q0 -63 44 -103t140 -79zM657 539v-371q170 41 170 176q0 39 -11 67.5t-38.5 52t-50.5 37t-70 38.5z" />
<glyph unicode="%" horiz-adv-x="1449" d="M1087.5 608q129.5 0 220.5 -91t91 -220t-91 -220t-220.5 -91t-220.5 91t-91 220t91 220t220.5 91zM1085.5 133q67.5 0 114.5 47t47 114.5t-47 115t-114.5 47.5t-114.5 -47.5t-47 -115t47 -114.5t114.5 -47zM428 1413q129 0 220 -91t91 -220t-91 -220t-220 -91t-220 91 t-91 220t91 220t220 91zM426 938q68 0 115 47t47 114.5t-47 115t-115 47.5t-115 -47.5t-47 -115t47 -114.5t115 -47zM1290 1417l-919 -1435h-154l920 1435h153z" />
<glyph unicode="&#x26;" horiz-adv-x="1280" d="M987 328l283 -328h-256l-162 190q-94 -80 -123 -98q-182 -111 -323 -110q-137 0 -243 92t-106 235q0 227 330 416q-158 164 -158 324q0 123 86 222t263 99q172 0 260 -96t88 -213q0 -66 -26 -125t-75 -108.5t-78.5 -74t-78.5 -59.5l196 -225q88 100 150 225h200 q-69 -186 -227 -366zM684 289l45 41l-227 262l-88 -62q-156 -106 -156 -213q0 -57 48 -101t124 -44q129 0 254 117zM555 829q182 111 182 228q0 59 -45 101t-112 42q-66 0 -110 -38t-44 -95q0 -51 31.5 -109.5t56.5 -86.5t41 -42z" />
<glyph unicode="'" horiz-adv-x="382" d="M135 879l-45 274v244h205v-244l-47 -274h-113z" />
<glyph unicode="(" horiz-adv-x="661" d="M637 -471h-113q-131 164 -189.5 252t-109.5 217q-94 233 -94 473q0 129 27.5 253t61.5 211t96.5 189.5t100.5 153.5l107 137h113l-81 -125t-76 -142t-72.5 -184t-45 -219.5t-20.5 -279.5q0 -545 295 -936z" />
<glyph unicode=")" horiz-adv-x="661" d="M25 1415h112l134 -173t85 -130t80 -166q94 -233 94 -473q0 -129 -27.5 -253t-61 -211t-96 -189.5t-100.5 -153.5t-108 -137h-112q53 80 80.5 125t75.5 142.5t73 184.5t45 219t20 277q1 547 -294 938z" />
<glyph unicode="*" horiz-adv-x="854" d="M485 1081l172 164q51 51 95 51q27 0 46 -20.5t19 -50.5q0 -37 -22.5 -57.5t-77.5 -37.5l-219 -79q4 -16 4 -25q0 -10 -4 -22l207 -72q113 -43 112 -105q0 -20 -18.5 -44.5t-48.5 -24.5q-45 0 -115 69l-150 148q-16 -20 -41 -21l41 -211q0 -2 4.5 -36.5t4.5 -57.5 q0 -86 -72 -86q-33 0 -49.5 26.5t-16.5 61.5q0 39 9 58q0 4 5 17t5 17l39 211q-18 0 -39 21l-160 -148q-74 -68 -113 -67q-33 0 -50 23.5t-17 43.5q0 27 23.5 50.5t43 32t56.5 22.5l202 72q-4 16 -4 24q0 12 4 23l-231 86q-90 33 -90 86q0 31 22.5 53t47.5 22q33 0 92 -53 l174 -164q18 18 39 21l-39 207q-14 61 -15 92q0 86 70 86q68 0 68 -80q0 -20 -13 -98l-41 -207q25 -1 41 -21z" />
<glyph unicode="+" horiz-adv-x="1193" d="M514 215v399h-401v168h401v400h168v-400h399v-168h-399v-399h-168z" />
<glyph unicode="," horiz-adv-x="448" d="M100 -244v37q78 78 84 207q-106 33 -106 131q0 53 37 93t86 40q63 0 101 -57t38 -135q0 -23 -5 -50.5t-23.5 -84t-74 -105.5t-137.5 -76z" />
<glyph unicode="-" horiz-adv-x="661" d="M580 551v-195h-498v195h498z" />
<glyph unicode="." horiz-adv-x="448" d="M223 223q47 0 85 -34.5t38 -86t-36 -86t-87 -34.5q-49 0 -85 34.5t-36 86t37 86t84 34.5z" />
<glyph unicode="/" horiz-adv-x="575" d="M14 -18l402 1433h145l-401 -1433h-146z" />
<glyph unicode="0" d="M520 1415q190 0 316.5 -199.5t126.5 -513.5q0 -326 -128 -523t-323 -197q-199 0 -325 194.5t-126 521.5q0 338 137.5 527.5t321.5 189.5zM512 1225q-102 0 -176 -128t-74 -395q0 -291 75 -410.5t173 -119.5q100 0 176 121t76 403q0 135 -20.5 237.5t-49 156t-66.5 86 t-64.5 41t-49.5 8.5z" />
<glyph unicode="1" d="M614 1397v-1397h-200v1397h200z" />
<glyph unicode="2" d="M954 193v-193h-884v14q369 446 483 643q100 166 100 299q0 137 -76.5 199t-164.5 62q-178 0 -314 -189v254q164 133 338 133q180 0 299 -120.5t119 -309.5q0 -96 -28.5 -188t-100.5 -203t-127 -183.5t-176 -217.5h532z" />
<glyph unicode="3" d="M131 61v218q156 -98 307 -99q90 0 155.5 53.5t65.5 165.5q0 98 -66.5 164t-223.5 66v184q281 0 280 211q0 82 -60.5 145.5t-180.5 63.5q-106 0 -242 -68v191q119 59 266 59q182 0 298 -96t116 -279q0 -209 -178 -303q104 -35 152 -128t48 -203q0 -190 -126 -307 t-300 -117q-157 -1 -311 79z" />
<glyph unicode="4" d="M809 1415v-784h156v-172h-156v-459h-195v459h-591v88l704 868h82zM614 631v405l-323 -405h323z" />
<glyph unicode="5" d="M827 1397v-178h-438v-353q229 12 368.5 -112.5t139.5 -323.5q0 -190 -126 -319t-339 -129q-164 0 -330 86v206q150 -98 295 -98q127 0 212 73t85 181q0 92 -61.5 154.5t-130 84t-129.5 21.5q-123 0 -166 -20v727h620z" />
<glyph unicode="6" d="M649 1415l121 -153q-326 -209 -428 -512q109 57 221 57q160 0 274.5 -114.5t114.5 -289.5q0 -178 -122.5 -299.5t-297.5 -121.5q-72 0 -143.5 25.5t-141 79.5t-113.5 157.5t-44 240.5q0 358 262 668q100 119 297 262zM299 543q-8 -49 -8 -107q0 -129 75.5 -198.5 t168.5 -69.5q90 0 155.5 62.5t65.5 166.5q0 115 -74 170.5t-168 55.5q-100 0 -215 -80z" />
<glyph unicode="7" d="M1004 1397l-633 -1415l-178 77l512 1147h-605v191h904z" />
<glyph unicode="8" d="M764 713q195 -115 194 -330q0 -166 -122.5 -283.5t-321.5 -117.5q-197 0 -322.5 119.5t-125.5 283.5q0 150 102 256q35 35 96 72q-33 27 -52 46t-50 59t-47.5 91.5t-16.5 112.5q0 168 125 280.5t299 112.5q168 0 292 -111.5t124 -279.5q0 -190 -174 -311zM739 1016 q0 82 -58 145.5t-163 63.5q-94 0 -158.5 -57.5t-64.5 -149.5q0 -96 72.5 -153.5t152.5 -57.5q82 0 150.5 57.5t68.5 151.5zM756 395q0 86 -62.5 151.5t-183.5 65.5q-123 0 -182.5 -68.5t-59.5 -150.5q0 -88 64.5 -153.5t183.5 -65.5q117 0 178.5 65.5t61.5 155.5z" />
<glyph unicode="9" d="M383 -18l-123 147q47 31 98.5 71t121 107.5t126 158.5t80.5 187q-98 -59 -223 -59q-168 0 -278.5 123t-110.5 282q0 164 117.5 290t300.5 126q205 0 328.5 -145.5t123.5 -364.5q0 -256 -159.5 -514.5t-401.5 -408.5zM725 852q10 82 10 109q0 100 -58.5 184t-180.5 84 q-115 0 -169.5 -74t-54.5 -156q0 -100 75 -161.5t159 -61.5q104 0 219 76z" />
<glyph unicode=":" horiz-adv-x="448" d="M215 227q49 0 86 -34.5t37 -88.5q0 -51 -37 -86.5t-86 -35.5t-85 35.5t-36 87t37 87t84 35.5zM231 938q49 0 86 -35t37 -88q0 -51 -36.5 -87t-86 -36t-85 36t-35.5 87q0 53 36.5 88t83.5 35z" />
<glyph unicode=";" horiz-adv-x="468" d="M246 938q47 0 84 -35t37 -88q0 -51 -36 -87t-85 -36t-86 36t-37 87q0 53 37 88t86 35zM125 -244v37q78 78 84 207q-106 33 -107 131q0 53 36 93t87 40q63 0 101.5 -57t38.5 -135q0 -23 -5.5 -50.5t-24 -84t-73.5 -105.5t-137 -76z" />
<glyph unicode="&#x3c;" horiz-adv-x="1193" d="M113 616v168l968 410v-178l-770 -316l770 -319v-178z" />
<glyph unicode="=" horiz-adv-x="1193" d="M1081 391h-968v168h968v-168zM1081 838h-968v168h968v-168z" />
<glyph unicode="&#x3e;" horiz-adv-x="1193" d="M1081 780v-168l-968 -409v178l770 315l-770 320v178z" />
<glyph unicode="?" horiz-adv-x="681" d="M133 1198l131 219q123 -8 185 -43q76 -43 110.5 -114.5t34.5 -141.5q0 -74 -27.5 -153.5t-58.5 -132t-92 -146.5q-131 -207 -131 -285q0 -25 6 -43q-35 14 -56.5 28.5t-46 57.5t-24.5 105q0 72 27.5 132t109.5 189q84 133 84 226q0 53 -27.5 85.5t-55.5 41t-56 8.5 q-41 0 -113 -33zM438 104q0 -53 -36.5 -87.5t-88.5 -34.5q-49 0 -84.5 32.5t-35.5 88t36.5 90t85.5 34.5q45 0 84 -33t39 -90z" />
<glyph unicode="@" horiz-adv-x="2068" d="M1313 856l35 156h180l-146 -672q-31 -154 -30 -156q0 -31 23.5 -48t45.5 -17q43 0 107.5 40t128 107.5t107.5 177t44 230.5q0 276 -207.5 453.5t-506.5 177.5q-254 0 -446.5 -122t-290 -316.5t-97.5 -424.5q0 -172 51 -307t133 -220t197 -140.5t232.5 -78t246.5 -22.5 q154 0 282 32t211 83t131 95t81 91h180q-14 -31 -40 -69.5t-98.5 -111.5t-164.5 -128t-245.5 -98t-334.5 -43q-262 0 -460.5 73.5t-316.5 200.5t-176 285t-58 342q0 125 28.5 256t102 271.5t182 249t285 178t395.5 69.5q203 0 367.5 -66.5t269 -178t160 -250t55.5 -285.5 q0 -227 -110.5 -393t-243.5 -250q-113 -74 -248 -74q-61 0 -102.5 15.5t-58.5 45t-22.5 50t-9.5 55.5q-147 -166 -307 -166q-156 0 -259 130t-103 318q0 152 69.5 299.5t191 243.5t259.5 96q190 0 301 -184zM678 387q0 -131 64.5 -208t148.5 -77q137 0 250.5 153t113.5 351 q0 137 -66.5 212t-164.5 75q-106 0 -189 -90t-120 -203t-37 -213z" />
<glyph unicode="A" horiz-adv-x="1366" d="M741 1405l625 -1405h-205l-186 412h-594l-176 -412h-205l600 1405h141zM459 592h434l-225 506z" />
<glyph unicode="B" horiz-adv-x="1150" d="M154 1397h366q152 0 234 -31q106 -39 170.5 -124t64.5 -208q0 -205 -213 -295q154 -29 244 -127t90 -231q0 -80 -29.5 -145.5t-77 -106.5t-87 -63.5t-78.5 -36.5q-82 -29 -297 -29h-387v1397zM485 1219h-133v-420h133q133 0 189 32q109 57 108 187q0 59 -26.5 106 t-71.5 68q-58 27 -199 27zM541 618h-189v-440h199q156 0 207 21q72 27 108.5 83t36.5 117q0 135 -133 191q-67 28 -229 28z" />
<glyph unicode="C" horiz-adv-x="1449" d="M1343 1300v-215q-244 139 -483 140q-246 0 -399.5 -156t-153.5 -375q0 -213 146.5 -369.5t408.5 -156.5q258 0 496 156v-220q-225 -123 -508 -122q-186 0 -334.5 65.5t-237 171t-134.5 228t-46 249.5q0 295 215 507t541 212q223 0 489 -115z" />
<glyph unicode="D" horiz-adv-x="1536" d="M156 1397h471q98 0 163.5 -4t180 -39t200.5 -101q123 -92 196 -236.5t73 -318.5q0 -123 -38 -231.5t-99.5 -181t-107.5 -112.5t-91 -69q-78 -49 -180.5 -73.5t-164 -27.5t-161.5 -3h-442v1397zM606 1219h-252v-1039h258q254 0 387 80q106 68 170 187.5t64 261 t-70.5 267.5t-220.5 191q-53 25 -113.5 36t-100.5 13.5t-122 2.5z" />
<glyph unicode="E" horiz-adv-x="1067" d="M946 1397v-178h-592v-426h572v-179h-572v-434h611v-180h-811v1397h792z" />
<glyph unicode="F" horiz-adv-x="960" d="M901 1397v-180h-545v-388h545v-180h-545v-649h-200v1397h745z" />
<glyph unicode="G" horiz-adv-x="1515" d="M1378 686v-590q-260 -115 -512 -114q-195 0 -346 64.5t-239 170t-133.5 225t-45.5 244.5q0 188 87 352t263.5 270.5t405.5 106.5q133 0 243.5 -29.5t248.5 -89.5v-204q-250 145 -496 145q-219 0 -381 -150.5t-162 -388.5q0 -236 156 -388t405 -152q115 0 306 61v291h-269 v176h469z" />
<glyph unicode="H" horiz-adv-x="1492" d="M1339 1397v-1397h-202v608h-783v-608h-200v1397h200v-604h783v604h202z" />
<glyph unicode="I" horiz-adv-x="512" d="M356 1397v-1397h-200v1397h200z" />
<glyph unicode="J" horiz-adv-x="512" d="M356 1397v-1379q0 -147 -24.5 -238t-93.5 -159q-98 -94 -263 -94q-4 0 -65 6l-37 186h23q157 0 206 55q53 58 54 267v1356h200z" />
<glyph unicode="K" horiz-adv-x="1343" d="M1194 1397l-606 -662l755 -735h-274l-713 690v-690h-202v1397h202v-639l588 639h250z" />
<glyph unicode="L" horiz-adv-x="1003" d="M354 1397v-1215h629v-182h-831v1397h202z" />
<glyph unicode="M" horiz-adv-x="1599" d="M1452 1397v-1397h-201v1087l-430 -540h-37l-434 540v-1087h-200v1397h188l465 -574l463 574h186z" />
<glyph unicode="N" horiz-adv-x="1599" d="M1454 1397v-1397h-172l-934 1075v-1075h-188v1397h162l942 -1084v1084h190z" />
<glyph unicode="O" horiz-adv-x="1685" d="M840 1415q336 0 544.5 -211t208.5 -504q0 -305 -213 -511.5t-551 -206.5q-322 0 -529.5 207.5t-207.5 504.5q0 188 85 350t259.5 266.5t403.5 104.5zM848 1227q-113 0 -207 -33t-155.5 -87t-104.5 -125t-62.5 -143.5t-19.5 -144.5q0 -231 158.5 -378.5t384.5 -147.5 q115 0 225.5 44t181.5 122q63 70 101.5 172t38.5 196q0 90 -34 180.5t-98.5 168t-171 127t-237.5 49.5z" />
<glyph unicode="P" horiz-adv-x="1044" d="M143 1397h361q106 0 159.5 -4t125 -32t126.5 -83q109 -109 109 -277q0 -170 -117 -282q-66 -63 -159 -88t-256 -25h-148v-606h-201v1397zM496 1221h-152v-437h160q162 0 221 37q92 55 92 185q0 100 -61 155q-43 41 -91 50.5t-169 9.5z" />
<glyph unicode="Q" horiz-adv-x="1685" d="M1563 -90l-201 -195q-311 14 -686 285q-236 41 -411 230.5t-175 463.5q0 311 212 516t540 205q227 0 401 -101.5t263 -262t89 -349.5q0 -256 -160.5 -453.5t-420.5 -248.5q279 -117 409 -117q68 0 140 27zM841.5 1227q-143.5 0 -255 -53.5t-171 -137.5t-89 -171 t-29.5 -171q0 -225 155.5 -375.5t389.5 -150.5q242 0 393 157.5t151 372.5q0 86 -29.5 173t-90 169t-171 134.5t-254 52.5z" />
<glyph unicode="R" horiz-adv-x="1236" d="M160 1397h350q137 0 240 -45q109 -45 164 -138.5t55 -205.5q0 -252 -234 -344q59 -39 116.5 -105.5t90.5 -116.5l105 -163q51 -82 190 -279h-238l-139 212q-123 187 -147 220q-92 119 -152.5 147.5t-148.5 28.5h-54v-608h-198v1397zM420 1227h-62v-441h78q139 0 195 21 q66 27 99.5 82t33.5 119q0 61 -28.5 112t-78.5 74q-67 33 -237 33z" />
<glyph unicode="S" horiz-adv-x="937" d="M817 1317v-227q-152 145 -328 145q-100 0 -160.5 -47t-60.5 -115q0 -84 64.5 -139t283.5 -184q115 -68 181 -156q76 -98 75 -232q0 -166 -110.5 -273t-294.5 -107q-207 0 -377 129v254q164 -205 377 -205q84 0 150.5 50t66.5 134q0 133 -184 242q-180 109 -241.5 151.5 t-104.5 98.5q-70 90 -70 208q0 162 112.5 266.5t299.5 104.5q171 0 321 -98z" />
<glyph unicode="T" horiz-adv-x="1236" d="M1202 1397v-176h-487v-1221h-201v1221h-479v176h1167z" />
<glyph unicode="U" horiz-adv-x="1449" d="M1325 1397v-793q0 -72 -3 -115t-16.5 -114.5t-48 -132t-90.5 -109.5q-172 -152 -440 -151q-162 0 -304 59t-220 184q-78 123 -78 379v793h201v-793q0 -141 17 -207.5t71 -120.5q113 -117 313 -116q260 0 360 184q39 72 39 260v793h199z" />
<glyph unicode="V" horiz-adv-x="1236" d="M1237 1397l-590 -1405h-45l-602 1405h201l420 -981l417 981h199z" />
<glyph unicode="W" horiz-adv-x="2134" d="M2132 1397l-565 -1405h-43l-457 1138l-461 -1138h-43l-563 1405h201l385 -963l387 963h190l389 -963l381 963h199z" />
<glyph unicode="X" horiz-adv-x="1449" d="M1407 1397l-557 -674l596 -723h-242l-475 578l-481 -578h-244l602 723l-559 674h244l438 -533l436 533h242z" />
<glyph unicode="Y" horiz-adv-x="1236" d="M1237 1397l-516 -658v-739h-205v739l-516 658h242l374 -482l379 482h242z" />
<glyph unicode="Z" horiz-adv-x="1323" d="M1286 1397l-893 -1221h893v-176h-1261l895 1221h-838v176h1204z" />
<glyph unicode="[" horiz-adv-x="681" d="M653 1397v-166h-280v-1520h280v-164h-477v1850h477z" />
<glyph unicode="\" horiz-adv-x="575" d="M416 -18l-402 1433h146l401 -1433h-145z" />
<glyph unicode="]" horiz-adv-x="681" d="M31 -453v164h278v1522h-278v164h475v-1850h-475z" />
<glyph unicode="^" horiz-adv-x="960" d="M238 596h-185l355 801h145l354 -801h-182l-246 598z" />
<glyph unicode="_" d="M-12 -154h1048v-102h-1048v102z" />
<glyph unicode="`" horiz-adv-x="681" d="M328 1337l137 -301h-113l-229 301h205z" />
<glyph unicode="a" horiz-adv-x="874" d="M850 164v-111q-109 -72 -176 -71q-117 0 -139 94q-119 -94 -248 -94q-98 0 -162 66.5t-64 158.5q0 53 20.5 96t44.5 68.5t77 53.5t80.5 39t91.5 34l162 57v49q0 162 -166 162q-164 0 -291 -152v199q106 125 305 125q147 0 240.5 -77t93.5 -226v-473q0 -47 35 -47 q30 0 96 49zM537 186v269q-145 -49 -218 -95.5t-73 -119.5q0 -57 36.5 -93t94.5 -36q80 -1 160 75z" />
<glyph unicode="b" d="M303 1397v-543q115 84 254 84q180 0 287.5 -135t107.5 -334q0 -231 -137 -360t-338 -129q-209 0 -356 71v1346h182zM303 680v-498q94 -29 193 -28q100 0 186 75.5t86 231.5q0 147 -76 228t-182 81q-105 0 -207 -90z" />
<glyph unicode="c" horiz-adv-x="894" d="M799 874v-194q-137 88 -256 88q-133 0 -207 -93t-74 -214q0 -129 79 -218t237 -89q106 0 241 61v-180q-152 -53 -268 -53q-227 0 -350 136t-123 337q0 88 25.5 170t77.5 154.5t143.5 115.5t207.5 43q120 -1 267 -64z" />
<glyph unicode="d" horiz-adv-x="1044" d="M926 1397v-1397h-389q-127 0 -220.5 48t-139.5 125t-66.5 151.5t-20.5 150.5q0 213 134 338t319 125q104 0 198 -37v496h185zM741 154v585q-82 43 -170 43q-125 0 -211 -83t-86 -246q0 -203 136 -271q57 -29 192 -28h139z" />
<glyph unicode="e" horiz-adv-x="980" d="M897 268v-178q-168 -109 -360.5 -108.5t-317.5 129.5q-137 141 -137 354t121 343t309 130q158 0 262.5 -100.5t128.5 -255.5q10 -61 10 -138h-647q6 -117 82 -202.5t215 -85.5q180 -1 334 112zM270 553h463q-2 27 -8 53.5t-25.5 71.5t-68.5 73.5t-121 28.5 q-106 0 -176 -78q-50 -53 -64 -149z" />
<glyph unicode="f" horiz-adv-x="532" d="M606 1397v-178q-41 16 -84 16q-55 0 -93 -18.5t-56.5 -42t-28.5 -64.5t-11 -66.5t-1 -68.5v-55h164v-164h-164v-756h-185v756h-129v164h129v55q0 154 48 258q43 82 116.5 132t159.5 50q65 0 135 -18z" />
<glyph unicode="g" horiz-adv-x="874" d="M862 920v-142h-188q96 -96 96 -200q0 -53 -25.5 -112.5t-60.5 -94.5q-51 -55 -147 -77l-161 -37q-65 -15 -65 -60q0 -37 66.5 -64t214.5 -55q266 -53 266 -256q0 -137 -114.5 -215t-319.5 -78q-186 0 -305 79t-119 199q0 102 56.5 164t174.5 90q-92 57 -92 117 q0 45 40 80t106 51v4q-100 43 -154 117q-49 70 -49 172q0 147 107.5 232.5t293.5 85.5h379zM606 600q0 66 -53 114t-125 48q-76 0 -129 -49t-53 -117q0 -76 51 -122t133 -46q78 0 127 48t49 124zM682 -193q0 53 -54.5 89t-118 47.5t-128.5 11.5q-92 0 -150.5 -39t-58.5 -100 q0 -141 256 -142q121 0 187.5 35t66.5 98z" />
<glyph unicode="h" d="M307 1397v-598q117 139 283 139q98 0 171 -50t103 -124q35 -88 35 -240v-524h-182v569q0 86 -33 142q-51 84 -145 84q-113 0 -232 -136v-659h-182v1397h182z" />
<glyph unicode="i" horiz-adv-x="448" d="M223 1307q45 0 77 -32t32 -75t-32 -75.5t-77 -32.5q-49 0 -77.5 34.5t-28.5 73.5q0 41 30.5 74t75.5 33zM315 920v-920h-182v920h182z" />
<glyph unicode="j" horiz-adv-x="448" d="M213 1307q41 0 75 -29t34 -78q0 -43 -29 -75.5t-78 -32.5t-79 35.5t-30 72.5q0 41 31 74t76 33zM309 920v-975q0 -80 -3 -123t-19.5 -104.5t-56.5 -106.5t-105 -82l-137 133q59 20 108 86q20 33 24.5 66.5t4.5 119.5v21v965h184z" />
<glyph unicode="k" horiz-adv-x="980" d="M944 920l-393 -451l473 -469h-244l-461 469l408 451h217zM311 1397v-1397h-184v1397h184z" />
<glyph unicode="l" horiz-adv-x="448" d="M315 1397v-1397h-182v1397h182z" />
<glyph unicode="m" horiz-adv-x="1579" d="M121 920h180v-121q78 78 140.5 108.5t133.5 30.5q178 0 271 -166q92 92 157.5 129t145.5 37q150 0 228.5 -94t78.5 -271v-573h-180v561q0 109 -50 165t-141 56q-113 0 -206 -114v-668h-181v551q0 109 -38.5 171t-143.5 62q-115 0 -215 -116v-668h-180v920z" />
<glyph unicode="n" d="M125 920h186v-117q121 135 277 135q63 0 137 -32t123 -115q51 -80 51 -267v-524h-184v524q0 86 -8.5 126t-40.5 79q-51 57 -138 57q-127 0 -217 -129v-657h-186v920z" />
<glyph unicode="o" horiz-adv-x="1130" d="M569 938q209 0 348.5 -133t139.5 -348q0 -227 -150.5 -351t-343.5 -124q-217 0 -353 139t-136 340t136 339t359 138zM559 774q-129 0 -214 -84t-85 -231q0 -158 94.5 -236t212.5 -78q135 0 219 88.5t84 227.5q0 158 -96 235.5t-215 77.5z" />
<glyph unicode="p" d="M117 920h319q203 0 328 -78q109 -70 149.5 -177.5t40.5 -205.5q0 -205 -127 -341t-329 -136q-88 0 -195 41v-494h-186v1391zM432 750h-129v-566q84 -43 176 -43q125 0 207 87t82 231q0 82 -27.5 141t-62.5 87t-90.5 43t-84 17.5t-71.5 2.5z" />
<glyph unicode="q" d="M905 920v-1391h-180v487q-109 -35 -201 -34q-188 0 -320 129t-132 340q0 57 12 115.5t47 124t87 114.5t141.5 82t203.5 33h342zM725 174v576h-115q-160 0 -219 -37q-135 -88 -135 -258q0 -137 83 -228.5t220 -91.5q47 0 166 39z" />
<glyph unicode="r" horiz-adv-x="790" d="M121 920h182v-211q33 51 52.5 77.5t57.5 68.5t78.5 62.5t86.5 20.5q106 0 215 -104l-97 -160q-29 29 -79 59.5t-97 30.5q-70 0 -143.5 -71.5t-73.5 -211.5v-481h-182v920z" />
<glyph unicode="s" horiz-adv-x="788" d="M662 862v-180q-158 98 -267 98q-59 0 -87.5 -25.5t-28.5 -56.5q0 -39 36.5 -68.5t143.5 -88.5q12 -6 18 -11q229 -125 230 -288q0 -37 -15.5 -78t-48.5 -84t-98.5 -70.5t-153.5 -27.5q-135 0 -307 84v196q176 -121 293 -121q49 0 94 26t45 69q0 45 -31.5 72.5 t-109.5 70.5q-141 78 -213 146.5t-72 172.5q0 102 81 171t212 69q134 0 279 -76z" />
<glyph unicode="t" horiz-adv-x="710" d="M342 1110v-190h291v-164h-291v-402q2 -88 7 -115.5t26 -52.5q37 -39 98 -39q100 0 207 66v-170q-113 -61 -236 -61q-59 0 -127.5 27.5t-111.5 88.5q-45 68 -45 250v408h-160v18z" />
<glyph unicode="u" d="M897 0h-184v117q-123 -135 -279 -135q-63 0 -137 31.5t-123 115.5q-51 80 -51 266v525h184v-525q0 -43 1 -68.5t11.5 -67.5t28 -65.5t55 -42t91.5 -18.5q127 0 219 129v658h184v-920z" />
<glyph unicode="v" horiz-adv-x="894" d="M889 920l-406 -938h-61l-416 938h199l248 -566l239 566h197z" />
<glyph unicode="w" horiz-adv-x="1472" d="M1473 920l-406 -938h-57l-273 643l-268 -643h-59l-410 938h195l241 -558l234 558h135l233 -558l240 558h195z" />
<glyph unicode="x" d="M997 920l-379 -453l406 -467h-233l-289 330l-273 -330h-229l387 467l-387 453h229l273 -316l262 316h233z" />
<glyph unicode="y" horiz-adv-x="894" d="M897 920l-651 -1391h-203l313 668l-356 723h207l248 -519l237 519h205z" />
<glyph unicode="z" horiz-adv-x="854" d="M829 920l-487 -752h487v-168h-806l483 750h-463v170h786z" />
<glyph unicode="{" horiz-adv-x="681" d="M580 1397h57v-152h-33q-123 0 -146.5 -52t-23.5 -294q0 -213 -48 -299t-163 -139q45 -18 78 -43t56.5 -48.5t38 -68.5t22.5 -75.5t11 -99.5t4 -112t1 -135q0 -127 34 -164t136 -37h33v-153h-57q-47 0 -74 2t-74 16.5t-74.5 41t-54.5 83t-33 135.5q-4 33 -8 191l-2 158 q-12 227 -203 231v158q59 2 100.5 25.5t62 52t30.5 87t12 97.5t2 115q2 127 4 179t17.5 111.5t46.5 100.5q33 41 82 61.5t81 23.5t85 3z" />
<glyph unicode="|" horiz-adv-x="532" d="M188 -475v1872h156v-1872h-156z" />
<glyph unicode="}" horiz-adv-x="681" d="M102 -475h-55v153h31q125 0 148.5 52.5t23.5 292.5q0 213 48 300t161 138q-45 18 -78 42.5t-55.5 49.5t-37 69t-22.5 75.5t-11 99t-4 110.5t-1 137q0 127 -35 164t-137 37h-31v152h55q47 0 74 -2t75 -16.5t75.5 -41t54.5 -83t33 -136.5q2 -31 5 -182.5t3 -165.5 q12 -225 203 -229v-158q-49 -2 -86 -15.5t-58.5 -44t-35 -57t-18.5 -81t-7 -85t-2 -96.5q0 -178 -10.5 -254t-57.5 -137q-31 -41 -80 -61.5t-82 -23.5t-86 -3z" />
<glyph unicode="~" horiz-adv-x="1193" d="M86 537v202q106 121 279 121q111 0 272 -69q147 -63 213 -64q123 0 258 135v-211q-119 -115 -277 -114q-109 0 -243 61q-162 74 -242 74q-55 0 -108.5 -24.5t-79 -46t-72.5 -64.5z" />
<glyph unicode="&#xa1;" horiz-adv-x="555" d="M152 924q0 47 34.5 85t89.5 38q49 0 87 -34t38 -89q0 -51 -33.5 -89t-88.5 -38q-57 0 -92 38t-35 89zM276 -393q-115 0 -114 287q0 258 71 626q2 23 15.5 62t27.5 39q35 0 74 -265.5t39 -455.5q0 -293 -113 -293z" />
<glyph unicode="&#xa2;" horiz-adv-x="894" d="M834 1270l-129 -359q78 -29 92 -39v-192q-63 51 -150 74l-209 -576q74 -27 125 -26q147 0 254 63v-176q-147 -59 -278 -59q-92 0 -162 20l-141 -389h-97l158 428q-80 45 -149.5 146.5t-69.5 260.5q0 217 123 354.5t338 137.5q51 0 79 -6l121 338h95zM362 223l197 545 q-125 4 -211 -79t-86 -234q0 -142 100 -232z" />
<glyph unicode="&#xa3;" horiz-adv-x="1087" d="M682 764v-178h-209l-102 -387q41 4 75 4q121 0 185 -13q119 -23 182 -22q129 0 203 45v-195q-111 -37 -205 -36q-66 0 -225 26q-53 8 -150 8q-170 0 -315 -34l162 604h-148v178h195q25 86 51.5 164t73.5 171t100 159.5t130 111.5t161 45q37 0 74 -8l114 -213 q-27 16 -76 23q-41 8 -73 8q-219 0 -338 -398l-21 -63h156z" />
<glyph unicode="&#xa4;" horiz-adv-x="1130" d="M213 934l-139 137l114 119l140 -141q104 74 237 73q129 0 238 -73l139 141l115 -119l-139 -137q72 -113 71.5 -236t-71.5 -235l139 -135l-115 -119l-139 139q-109 -74 -238 -74q-133 0 -237 74l-140 -139l-114 119l139 135q-72 113 -72 235.5t72 235.5zM305 698.5 q0 -106.5 76 -183.5t182 -77q109 0 184.5 76t75.5 184.5t-75.5 184t-184.5 75.5q-106 0 -182 -76.5t-76 -183z" />
<glyph unicode="&#xa5;" horiz-adv-x="1130" d="M477 0v319h-416v144h416v149h-416v144h342l-405 710h201l288 -516q49 -86 76 -153q14 35 82 161l275 508h213l-404 -710h340v-144h-412v-149h412v-144h-412v-319h-180z" />
<glyph unicode="&#xa6;" horiz-adv-x="532" d="M188 -475v766h156v-766h-156zM188 633v764h156v-764h-156z" />
<glyph unicode="&#xa7;" horiz-adv-x="831" d="M508 1214l2 27q0 16 -15.5 29.5t-48.5 13.5q-55 0 -96 -32.5t-41 -106.5q0 -129 180 -299q72 -66 97.5 -91.5t55.5 -61.5t54 -77q70 -115 70 -233q0 -100 -40 -173t-112 -144q72 -104 72 -226q0 -127 -89 -219t-226 -92q-104 0 -173 50t-69 132q0 47 30.5 87t82.5 40 q41 0 69.5 -25.5t28.5 -72.5q0 -2 -3 -20.5t-3 -22.5q0 -16 14 -26.5t33 -10.5q55 0 101 41t46 109q0 51 -38.5 117.5t-72.5 104.5l-104 111q-55 57 -86.5 94t-76 99.5t-64.5 133.5t-20 148q0 156 135 283q-57 96 -58 197q0 43 15.5 93t47.5 102.5t96.5 87t150.5 34.5 q90 0 166.5 -43t76.5 -131q0 -53 -30.5 -83t-75.5 -30q-43 0 -62.5 27.5t-19.5 58.5zM385 692l-98 94q-66 -78 -66 -153q0 -57 32 -117.5t66.5 -103.5t110.5 -121l100 -107q23 23 49.5 72t26.5 100q0 76 -44 142.5t-177 193.5z" />
<glyph unicode="&#xa8;" horiz-adv-x="681" d="M149.5 1286q38.5 0 66.5 -27.5t28 -66.5t-28 -66.5t-66.5 -27.5t-66.5 27.5t-28 66.5t28 66.5t66.5 27.5zM534.5 1286q38.5 0 66.5 -27.5t28 -66.5t-28 -66.5t-66.5 -27.5t-66.5 27.5t-28 66.5t28 66.5t66.5 27.5z" />
<glyph unicode="&#xa9;" horiz-adv-x="1515" d="M999 539l123 -37q-33 -137 -135 -205t-229 -68q-176 0 -286 115t-110 315q0 197 108 310.5t296 113.5q123 0 215 -58t127 -177l-119 -29q-25 59 -63 94q-68 59 -164 60q-133 0 -197.5 -94.5t-64.5 -223.5q0 -152 70.5 -230.5t181.5 -78.5q27 0 56.5 6t69.5 24.5t73.5 61 t47.5 101.5zM757.5 1415q311.5 0 532.5 -220t221 -533.5t-220 -534.5t-533.5 -221t-534.5 221t-221 534.5t222 533.5t533.5 220zM758 1290q-260 0 -444.5 -183t-184.5 -445.5t184.5 -446.5t444.5 -184t444 185t184 446q0 262 -184 445t-444 183z" />
<glyph unicode="&#xaa;" horiz-adv-x="575" d="M559 973v-88q-76 -47 -131 -47q-72 0 -94 47q-70 -47 -154 -47q-63 0 -106 43t-43 100q0 113 211 176l92 27v26q0 25 -3 39.5t-24.5 32.5t-64.5 18t-87 -21.5t-62 -36.5l-52 -48v141q109 80 217 80q121 0 178 -72q37 -43 37 -159v-211q0 -41 14 -41q11 0 72 41zM334 965 v147l-64 -22q-57 -20 -77.5 -41t-20.5 -51.5t18.5 -50t53.5 -19.5q39 0 90 37z" />
<glyph unicode="&#xab;" horiz-adv-x="1003" d="M956 0h-180l-301 461l301 459h180l-303 -459zM541 0h-181l-303 461l303 459h181l-303 -459z" />
<glyph unicode="&#xac;" horiz-adv-x="1193" d="M1081 391h-168v447h-800v168h968v-615z" />
<glyph unicode="&#xad;" horiz-adv-x="661" d="M580 551v-195h-498v195h498z" />
<glyph unicode="&#xae;" horiz-adv-x="1515" d="M426 244v811h281q201 0 268 -56q78 -68 78 -163q0 -80 -58.5 -151t-173.5 -79q43 -16 82 -55t107 -150l98 -157h-160l-71 129q-76 133 -120 174t-122 41h-78v-344h-131zM557 944v-244h160q197 0 196 125q0 41 -18 68t-56 37t-63.5 12t-68.5 2h-150zM757.5 1415 q311.5 0 532.5 -220t221 -533.5t-220 -534.5t-533.5 -221t-534.5 221t-221 534.5t222 533.5t533.5 220zM758 1290q-260 0 -444.5 -183t-184.5 -445.5t184.5 -446.5t444.5 -184t444 185t184 446q0 262 -184 445t-444 183z" />
<glyph unicode="&#xaf;" horiz-adv-x="681" d="M680 1266v-150h-678v150h678z" />
<glyph unicode="&#xb0;" horiz-adv-x="811" d="M127 1139q0 115 82 195.5t196.5 80.5t195.5 -81t81 -195q0 -117 -81 -198t-195.5 -81t-196.5 81t-82 198zM236 1138.5q0 -69.5 50 -119.5t119.5 -50t118.5 50t49 119.5t-49 119t-118.5 49.5t-119.5 -49.5t-50 -119z" />
<glyph unicode="&#xb1;" horiz-adv-x="1193" d="M1081 -25h-968v168h968v-168zM514 238v399h-401v168h401v401h168v-401h399v-168h-399v-399h-168z" />
<glyph unicode="&#xb2;" horiz-adv-x="661" d="M604 670v-111h-547v14q139 139 254 285q90 113 90 197q0 68 -42 96.5t-89 28.5q-106 0 -194 -119v160q94 74 209 73q113 0 186.5 -63.5t73.5 -163.5q0 -49 -18.5 -98t-60.5 -105.5t-74 -92.5t-95 -101h307z" />
<glyph unicode="&#xb3;" horiz-adv-x="661" d="M94 594v129q98 -59 193 -59q12 0 26.5 3t38 11t39 31.5t15.5 58.5q0 37 -14.5 60.5t-46.5 33.5t-52.5 13.5t-59.5 5.5v106q33 0 53.5 2t51.5 10.5t46 31t15 59.5q0 39 -31.5 68.5t-97 29.5t-155.5 -41v113q70 35 168 34q104 0 180 -48t76 -150q0 -104 -97 -154 q111 -41 111 -170q0 -98 -78 -160.5t-188 -62.5q-91 0 -193 45z" />
<glyph unicode="&#xb4;" horiz-adv-x="681" d="M547 1337l-225 -301h-113l135 301h203z" />
<glyph unicode="&#xb5;" horiz-adv-x="1130" d="M760 920h182v-641l-2 -56q6 -59 53 -59q41 0 94 31v-144q-156 -70 -237 -69q-37 0 -58.5 18t-25.5 35.5t-6 44.5q-31 -31 -49.5 -47.5t-59.5 -34.5t-84 -18q-47 0 -87 19t-63.5 40.5t-70.5 71.5v-580h-180v1389h180v-668q96 -121 209 -121q23 0 51.5 8t66.5 29.5t63.5 72 t23.5 119.5v560z" />
<glyph unicode="&#xb6;" horiz-adv-x="1110" d="M406 -475v1044q-197 10 -300.5 126t-103.5 280q0 125 56.5 226.5t164.5 148.5q106 47 250 47h633v-172h-143v-1700h-166v1700h-224v-1700h-167z" />
<glyph unicode="&#xb7;" horiz-adv-x="532" d="M266 819q45 0 78 -32.5t33 -80t-33 -79t-78 -31.5t-77.5 31.5t-32.5 79t32.5 80t77.5 32.5z" />
<glyph unicode="&#xb8;" horiz-adv-x="681" d="M428 16l-14 -49q63 -14 87.5 -54t24.5 -81q0 -43 -24.5 -83t-55.5 -62q-55 -37 -174 -37q-43 0 -65 6v113q45 -4 63 -5q37 0 73 12.5t36 43t-28.5 44t-55.5 11.5t-35 -2l51 143h117z" />
<glyph unicode="&#xb9;" horiz-adv-x="661" d="M401 1286v-727h-141v727h141z" />
<glyph unicode="&#xba;" horiz-adv-x="747" d="M700 1126.5q0 -120.5 -91 -203.5t-236 -83q-143 0 -234.5 83t-91.5 203q0 123 91 206t235 83q145 0 236 -84t91 -204.5zM559 1128.5q0 94.5 -58.5 136.5t-125.5 42q-70 0 -127.5 -42t-57.5 -136.5t58.5 -135.5t126 -41t126 41t58.5 135.5z" />
<glyph unicode="&#xbb;" horiz-adv-x="1003" d="M47 920h178l303 -461l-303 -459h-178l303 459zM463 920h178l303 -461l-303 -459h-178l303 459z" />
<glyph unicode="&#xbc;" horiz-adv-x="1728" d="M1587 737v-401h92v-100h-92v-236h-139v236h-348v51l420 450h67zM1448 336v172l-160 -172h160zM399 1407v-727h-141v727h141zM1423 1415l-931 -1470h-138l930 1470h139z" />
<glyph unicode="&#xbd;" horiz-adv-x="1728" d="M399 1407v-727h-141v727h141zM1362 1415l-932 -1470h-137l932 1470h137zM1673 111v-111h-547v14q139 139 254 285q90 115 90 197q0 68 -42 97.5t-89 29.5q-43 0 -84 -21.5t-61 -42t-51 -57.5v162q109 74 211 73q113 0 186.5 -64.5t73.5 -162.5q0 -63 -40 -137t-83 -124 t-129 -138h311z" />
<glyph unicode="&#xbe;" horiz-adv-x="1728" d="M92 715v129q98 -59 193 -60q12 0 26.5 3.5t38 11.5t38.5 31.5t15 58.5q0 37 -14 60.5t-46 33.5t-52.5 13t-59.5 5v107q27 0 41.5 1t42 6t43 15.5t27.5 31t12 48.5q0 39 -31.5 69t-97.5 30q-70 0 -155 -41v112q70 35 168 35q104 0 180 -48t76 -150q0 -104 -97 -154 q111 -41 111 -170q0 -98 -78 -160.5t-188 -62.5q-91 0 -193 45zM1399 1415l-932 -1470h-137l930 1470h139zM1587 737v-401h92v-100h-92v-236h-139v236h-348v51l420 450h67zM1448 336v172l-160 -172h160z" />
<glyph unicode="&#xbf;" horiz-adv-x="681" d="M594 -174l-133 -217q-113 0 -185 43q-74 43 -108.5 113.5t-34.5 140.5q0 74 26.5 152.5t58.5 133t91 146.5q133 195 133 285q0 20 -6 45q35 -18 55.5 -31.5t45 -56.5t24.5 -105q0 -74 -28.5 -135t-108.5 -186q-84 -137 -84 -226q0 -53 27.5 -85.5t55.5 -41t56 -8.5 q43 0 115 33zM287 922q0 51 37.5 85.5t87 34.5t86.5 -32.5t37 -88t-37 -90t-86 -34.5q-47 0 -86 33t-39 92z" />
<glyph unicode="&#xc0;" horiz-adv-x="1366" d="M741 1405l625 -1405h-205l-186 412h-594l-176 -412h-205l600 1405h141zM459 592h434l-225 506zM688 1800l150 -307h-107l-336 307h293z" />
<glyph unicode="&#xc1;" horiz-adv-x="1366" d="M741 1405l625 -1405h-205l-186 412h-594l-176 -412h-205l600 1405h141zM459 592h434l-225 506zM684 1800h293l-336 -307h-106z" />
<glyph unicode="&#xc2;" horiz-adv-x="1366" d="M741 1405l625 -1405h-205l-186 412h-594l-176 -412h-205l600 1405h141zM459 592h434l-225 506zM1024 1493h-127l-213 195l-215 -195h-125l193 322h290z" />
<glyph unicode="&#xc3;" horiz-adv-x="1366" d="M741 1405l625 -1405h-205l-186 412h-594l-176 -412h-205l600 1405h141zM459 592h434l-225 506zM455 1493h-107q14 117 70.5 182.5t136.5 65.5q59 0 188 -64q78 -37 103 -37q57 0 69 101h107q-8 -115 -64.5 -181.5t-134.5 -66.5q-37 0 -67.5 10t-134.5 58 q-74 33 -96.5 32.5t-37 -17.5t-19.5 -32.5t-13 -50.5z" />
<glyph unicode="&#xc4;" horiz-adv-x="1366" d="M741 1405l625 -1405h-205l-186 412h-594l-176 -412h-205l600 1405h141zM459 592h434l-225 506zM895 1761q45 0 77 -31.5t32 -76.5t-32 -77t-77 -32t-77 32t-32 77t32 76.5t77 31.5zM473 1761q45 0 77 -31.5t32 -76.5t-32 -77t-77 -32t-76.5 32t-31.5 77t31.5 76.5 t76.5 31.5z" />
<glyph unicode="&#xc5;" horiz-adv-x="1366" d="M741 1405l625 -1405h-205l-186 412h-594l-176 -412h-205l600 1405h141zM459 592h434l-225 506zM684 1907q92 0 149.5 -64.5t57.5 -142.5q0 -84 -57.5 -145.5t-149.5 -61.5q-90 0 -148.5 61.5t-58.5 145.5q0 86 60.5 146.5t146.5 60.5zM684 1587q45 0 79 34t34 79 t-34 78.5t-79 33.5t-79 -33.5t-34 -78.5t34 -79t79 -34z" />
<glyph unicode="&#xc6;" horiz-adv-x="1867" d="M1743 1397v-178h-574v-422h555v-181h-555v-436h596v-180h-796v616h-381l-365 -616h-219l827 1397h912zM969 797v465l-277 -465h277z" />
<glyph unicode="&#xc7;" horiz-adv-x="1449" d="M1358 322v-213q-207 -125 -463 -132q72 -10 114 -51t42 -106q0 -100 -104.5 -157.5t-231.5 -57.5q-55 0 -133 8v129q20 -4 104 -4q156 0 156 65q0 72 -164 62l51 135q-190 20 -336.5 126.5t-220.5 258.5t-74 315q0 287 212 501t548 214q215 0 485 -117v-215 q-260 141 -473 142q-246 0 -404.5 -151.5t-158.5 -379.5q0 -233 161 -381.5t386 -148.5q252 0 504 158z" />
<glyph unicode="&#xc8;" horiz-adv-x="1067" d="M946 1397v-178h-592v-426h572v-179h-572v-434h611v-180h-811v1397h792zM549 1800l149 -307h-106l-336 307h293z" />
<glyph unicode="&#xc9;" horiz-adv-x="1067" d="M946 1397v-178h-592v-426h572v-179h-572v-434h611v-180h-811v1397h792zM596 1800h293l-336 -307h-107z" />
<glyph unicode="&#xca;" horiz-adv-x="1067" d="M946 1397v-178h-592v-426h572v-179h-572v-434h611v-180h-811v1397h792zM885 1493h-127l-213 195l-215 -195h-125l192 322h291z" />
<glyph unicode="&#xcb;" horiz-adv-x="1067" d="M946 1397v-178h-592v-426h572v-179h-572v-434h611v-180h-811v1397h792zM756 1761q45 0 76.5 -31.5t31.5 -76.5t-31.5 -77t-76.5 -32t-77 32t-32 77t32 76.5t77 31.5zM334 1761q45 0 76.5 -31.5t31.5 -76.5t-31.5 -77t-76.5 -32t-77 32t-32 77t32 76.5t77 31.5z" />
<glyph unicode="&#xcc;" horiz-adv-x="512" d="M356 1397v-1397h-200v1397h200zM262 1800l150 -307h-107l-336 307h293z" />
<glyph unicode="&#xcd;" horiz-adv-x="512" d="M356 1397v-1397h-200v1397h200zM258 1800h293l-336 -307h-106z" />
<glyph unicode="&#xce;" horiz-adv-x="512" d="M356 1397v-1397h-200v1397h200zM598 1493h-127l-213 195l-215 -195h-125l193 322h290z" />
<glyph unicode="&#xcf;" horiz-adv-x="512" d="M356 1397v-1397h-200v1397h200zM469 1761q45 0 77 -31.5t32 -76.5t-32 -77t-77 -32t-77 32t-32 77t32 76.5t77 31.5zM47 1761q45 0 77 -31.5t32 -76.5t-32 -77t-77 -32t-76.5 32t-31.5 77t31.5 76.5t76.5 31.5z" />
<glyph unicode="&#xd0;" horiz-adv-x="1536" d="M156 633h-164v131h164v633h471q98 0 163.5 -4t180 -39t200.5 -101q123 -92 196 -236.5t73 -318.5q0 -123 -38 -231.5t-99.5 -181t-107.5 -112.5t-91 -69q-78 -49 -180.5 -73.5t-164 -27.5t-161.5 -3h-442v633zM752 633h-398v-453h258q254 0 387 80q106 68 170 187.5 t64 261t-70.5 267.5t-220.5 191q-53 25 -113.5 36t-100.5 13.5t-122 2.5h-252v-455h398v-131z" />
<glyph unicode="&#xd1;" horiz-adv-x="1599" d="M1454 1397v-1397h-172l-934 1075v-1075h-188v1397h162l942 -1084v1084h190zM571 1493h-106q14 117 70.5 182.5t136.5 65.5q59 0 188 -64q78 -37 103 -37q57 0 69 101h107q-8 -115 -64.5 -181.5t-134.5 -66.5q-37 0 -67.5 10t-135.5 58q-74 33 -96.5 32.5t-36.5 -17.5 t-19.5 -32.5t-13.5 -50.5z" />
<glyph unicode="&#xd2;" horiz-adv-x="1685" d="M840 1415q336 0 544.5 -211t208.5 -504q0 -305 -213 -511.5t-551 -206.5q-322 0 -529.5 207.5t-207.5 504.5q0 188 85 350t259.5 266.5t403.5 104.5zM848 1227q-113 0 -207 -33t-155.5 -87t-104.5 -125t-62.5 -143.5t-19.5 -144.5q0 -231 158.5 -378.5t384.5 -147.5 q115 0 225.5 44t181.5 122q63 70 101.5 172t38.5 196q0 90 -34 180.5t-98.5 168t-171 127t-237.5 49.5zM868 1800l150 -307h-107l-336 307h293z" />
<glyph unicode="&#xd3;" horiz-adv-x="1685" d="M840 1415q336 0 544.5 -211t208.5 -504q0 -305 -213 -511.5t-551 -206.5q-322 0 -529.5 207.5t-207.5 504.5q0 188 85 350t259.5 266.5t403.5 104.5zM848 1227q-113 0 -207 -33t-155.5 -87t-104.5 -125t-62.5 -143.5t-19.5 -144.5q0 -231 158.5 -378.5t384.5 -147.5 q115 0 225.5 44t181.5 122q63 70 101.5 172t38.5 196q0 90 -34 180.5t-98.5 168t-171 127t-237.5 49.5zM844 1800h293l-336 -307h-107z" />
<glyph unicode="&#xd4;" horiz-adv-x="1685" d="M840 1415q336 0 544.5 -211t208.5 -504q0 -305 -213 -511.5t-551 -206.5q-322 0 -529.5 207.5t-207.5 504.5q0 188 85 350t259.5 266.5t403.5 104.5zM848 1227q-113 0 -207 -33t-155.5 -87t-104.5 -125t-62.5 -143.5t-19.5 -144.5q0 -231 158.5 -378.5t384.5 -147.5 q115 0 225.5 44t181.5 122q63 70 101.5 172t38.5 196q0 90 -34 180.5t-98.5 168t-171 127t-237.5 49.5zM1184 1493h-127l-213 195l-215 -195h-125l192 322h291z" />
<glyph unicode="&#xd5;" horiz-adv-x="1685" d="M840 1415q336 0 544.5 -211t208.5 -504q0 -305 -213 -511.5t-551 -206.5q-322 0 -529.5 207.5t-207.5 504.5q0 188 85 350t259.5 266.5t403.5 104.5zM848 1227q-113 0 -207 -33t-155.5 -87t-104.5 -125t-62.5 -143.5t-19.5 -144.5q0 -231 158.5 -378.5t384.5 -147.5 q115 0 225.5 44t181.5 122q63 70 101.5 172t38.5 196q0 90 -34 180.5t-98.5 168t-171 127t-237.5 49.5zM614 1493h-106q14 117 70.5 182.5t136.5 65.5q59 0 188 -64q78 -37 103 -37q57 0 69 101h107q-8 -115 -64.5 -181.5t-134.5 -66.5q-37 0 -67.5 10t-135.5 58 q-74 33 -96 32.5t-36.5 -17.5t-20 -32.5t-13.5 -50.5z" />
<glyph unicode="&#xd6;" horiz-adv-x="1685" d="M840 1415q336 0 544.5 -211t208.5 -504q0 -305 -213 -511.5t-551 -206.5q-322 0 -529.5 207.5t-207.5 504.5q0 188 85 350t259.5 266.5t403.5 104.5zM848 1227q-113 0 -207 -33t-155.5 -87t-104.5 -125t-62.5 -143.5t-19.5 -144.5q0 -231 158.5 -378.5t384.5 -147.5 q115 0 225.5 44t181.5 122q63 70 101.5 172t38.5 196q0 90 -34 180.5t-98.5 168t-171 127t-237.5 49.5zM1055 1761q45 0 76.5 -31.5t31.5 -76.5t-31.5 -77t-76.5 -32t-77 32t-32 77t32 76.5t77 31.5zM633 1761q45 0 76.5 -31.5t31.5 -76.5t-31.5 -77t-76.5 -32t-77 32 t-32 77t32 76.5t77 31.5z" />
<glyph unicode="&#xd7;" horiz-adv-x="1193" d="M162 385l315 313l-315 314l121 123l315 -314l313 314l121 -123l-313 -314l313 -313l-121 -123l-313 316l-315 -316z" />
<glyph unicode="&#xd8;" horiz-adv-x="1685" d="M1468 1337l-94 -114q92 -84 155.5 -218.5t63.5 -302.5q0 -305 -212 -512.5t-537 -207.5q-258 0 -434 118l-101 -108l-96 67l96 119q-96 88 -156.5 222.5t-60.5 291.5q0 299 207 511t545 212q225 0 432 -117l98 121zM1239 1071l-700 -819q143 -82 303 -82q244 0 394 154.5 t150 380.5q0 219 -147 366zM442 328l703 821q-137 80 -299 80q-131 0 -237.5 -46t-172 -123t-101.5 -169t-36 -191q0 -141 63 -262q29 -53 80 -110z" />
<glyph unicode="&#xd9;" horiz-adv-x="1449" d="M1325 1397v-793q0 -72 -3 -115t-16.5 -114.5t-48 -132t-90.5 -109.5q-172 -152 -440 -151q-162 0 -304 59t-220 184q-78 123 -78 379v793h201v-793q0 -141 17 -207.5t71 -120.5q113 -117 313 -116q260 0 360 184q39 72 39 260v793h199zM731 1800l150 -307h-107l-336 307 h293z" />
<glyph unicode="&#xda;" horiz-adv-x="1449" d="M1325 1397v-793q0 -72 -3 -115t-16.5 -114.5t-48 -132t-90.5 -109.5q-172 -152 -440 -151q-162 0 -304 59t-220 184q-78 123 -78 379v793h201v-793q0 -141 17 -207.5t71 -120.5q113 -117 313 -116q260 0 360 184q39 72 39 260v793h199zM727 1800h293l-336 -307h-106z" />
<glyph unicode="&#xdb;" horiz-adv-x="1449" d="M1325 1397v-793q0 -72 -3 -115t-16.5 -114.5t-48 -132t-90.5 -109.5q-172 -152 -440 -151q-162 0 -304 59t-220 184q-78 123 -78 379v793h201v-793q0 -141 17 -207.5t71 -120.5q113 -117 313 -116q260 0 360 184q39 72 39 260v793h199zM1067 1493h-127l-213 195 l-215 -195h-125l193 322h290z" />
<glyph unicode="&#xdc;" horiz-adv-x="1449" d="M1325 1397v-793q0 -72 -3 -115t-16.5 -114.5t-48 -132t-90.5 -109.5q-172 -152 -440 -151q-162 0 -304 59t-220 184q-78 123 -78 379v793h201v-793q0 -141 17 -207.5t71 -120.5q113 -117 313 -116q260 0 360 184q39 72 39 260v793h199zM938 1761q45 0 77 -31.5t32 -76.5 t-32 -77t-77 -32t-77 32t-32 77t32 76.5t77 31.5zM516 1761q45 0 77 -31.5t32 -76.5t-32 -77t-77 -32t-76.5 32t-31.5 77t31.5 76.5t76.5 31.5z" />
<glyph unicode="&#xdd;" horiz-adv-x="1236" d="M1237 1397l-516 -658v-739h-205v739l-516 658h242l374 -482l379 482h242zM682 1800h293l-336 -307h-107z" />
<glyph unicode="&#xde;" horiz-adv-x="1044" d="M143 1397h201v-303h160q106 0 159.5 -4.5t125 -32t126.5 -82.5q109 -113 109 -279q0 -168 -117 -280q-66 -63 -159 -88t-256 -25h-148v-303h-201v1397zM496 918h-152v-437h160q162 0 221 37q92 55 92 184q0 96 -61 156q-43 41 -91 50.5t-169 9.5z" />
<glyph unicode="&#xdf;" d="M121 0v920v69q0 25 4 72t10 75.5t19.5 69.5t33 67.5t49 56.5t66.5 46.5t89 27.5t116 11q113 0 194.5 -33.5t121.5 -88t56.5 -106.5t16.5 -106q0 -31 -6 -64.5t-23.5 -82.5t-61.5 -93t-110 -71q135 -35 197.5 -137.5t62.5 -231.5q0 -166 -92 -292.5t-264 -126.5 q-74 0 -143 18v178q49 -23 100 -22q113 0 164 79.5t51 178.5q0 74 -25.5 128t-55 78.5t-81 40t-75 17.5t-62.5 2v166q57 0 82 4q68 10 106.5 56t47 82t8.5 71q0 96 -60.5 155.5t-150.5 59.5q-51 0 -103.5 -24.5t-78.5 -84.5q-20 -51 -21 -245v-920h-182z" />
<glyph unicode="&#xe0;" horiz-adv-x="874" d="M850 164v-111q-109 -72 -176 -71q-117 0 -139 94q-119 -94 -248 -94q-98 0 -162 66.5t-64 158.5q0 53 20.5 96t44.5 68.5t77 53.5t80.5 39t91.5 34l162 57v49q0 162 -166 162q-164 0 -291 -152v199q106 125 305 125q147 0 240.5 -77t93.5 -226v-473q0 -47 35 -47 q30 0 96 49zM537 186v269q-145 -49 -218 -95.5t-73 -119.5q0 -57 36.5 -93t94.5 -36q80 -1 160 75zM391 1337l137 -301h-112l-230 301h205z" />
<glyph unicode="&#xe1;" horiz-adv-x="874" d="M850 164v-111q-109 -72 -176 -71q-117 0 -139 94q-119 -94 -248 -94q-98 0 -162 66.5t-64 158.5q0 53 20.5 96t44.5 68.5t77 53.5t80.5 39t91.5 34l162 57v49q0 162 -166 162q-164 0 -291 -152v199q106 125 305 125q147 0 240.5 -77t93.5 -226v-473q0 -47 35 -47 q30 0 96 49zM537 186v269q-145 -49 -218 -95.5t-73 -119.5q0 -57 36.5 -93t94.5 -36q80 -1 160 75zM610 1337l-225 -301h-113l136 301h202z" />
<glyph unicode="&#xe2;" horiz-adv-x="874" d="M850 164v-111q-109 -72 -176 -71q-117 0 -139 94q-119 -94 -248 -94q-98 0 -162 66.5t-64 158.5q0 53 20.5 96t44.5 68.5t77 53.5t80.5 39t91.5 34l162 57v49q0 162 -166 162q-164 0 -291 -152v199q106 125 305 125q147 0 240.5 -77t93.5 -226v-473q0 -47 35 -47 q30 0 96 49zM537 186v269q-145 -49 -218 -95.5t-73 -119.5q0 -57 36.5 -93t94.5 -36q80 -1 160 75zM498 1346l192 -310h-112l-179 176l-170 -176h-108l186 310h191z" />
<glyph unicode="&#xe3;" horiz-adv-x="874" d="M850 164v-111q-109 -72 -176 -71q-117 0 -139 94q-119 -94 -248 -94q-98 0 -162 66.5t-64 158.5q0 53 20.5 96t44.5 68.5t77 53.5t80.5 39t91.5 34l162 57v49q0 162 -166 162q-164 0 -291 -152v199q106 125 305 125q147 0 240.5 -77t93.5 -226v-473q0 -47 35 -47 q30 0 96 49zM537 186v269q-145 -49 -218 -95.5t-73 -119.5q0 -57 36.5 -93t94.5 -36q80 -1 160 75zM188 1073h-84q2 131 52.5 183.5t111.5 52.5q53 0 146 -35q119 -45 139 -45q61 0 74 80h78q-2 -125 -51.5 -180.5t-109 -55.5t-179.5 53q-61 27 -109 27q-60 0 -68 -80z" />
<glyph unicode="&#xe4;" horiz-adv-x="874" d="M850 164v-111q-109 -72 -176 -71q-117 0 -139 94q-119 -94 -248 -94q-98 0 -162 66.5t-64 158.5q0 53 20.5 96t44.5 68.5t77 53.5t80.5 39t91.5 34l162 57v49q0 162 -166 162q-164 0 -291 -152v199q106 125 305 125q147 0 240.5 -77t93.5 -226v-473q0 -47 35 -47 q30 0 96 49zM537 186v269q-145 -49 -218 -95.5t-73 -119.5q0 -57 36.5 -93t94.5 -36q80 -1 160 75zM213 1286q39 0 66.5 -27.5t27.5 -66.5t-27.5 -66.5t-66.5 -27.5t-66.5 27.5t-27.5 66.5t27.5 66.5t66.5 27.5zM598 1286q39 0 66.5 -27.5t27.5 -66.5t-27.5 -66.5 t-66.5 -27.5t-66.5 27.5t-27.5 66.5t27.5 66.5t66.5 27.5z" />
<glyph unicode="&#xe5;" horiz-adv-x="874" d="M850 164v-111q-109 -72 -176 -71q-117 0 -139 94q-119 -94 -248 -94q-98 0 -162 66.5t-64 158.5q0 53 20.5 96t44.5 68.5t77 53.5t80.5 39t91.5 34l162 57v49q0 162 -166 162q-164 0 -291 -152v199q106 125 305 125q147 0 240.5 -77t93.5 -226v-473q0 -47 35 -47 q30 0 96 49zM537 186v269q-145 -49 -218 -95.5t-73 -119.5q0 -57 36.5 -93t94.5 -36q80 -1 160 75zM408 1415q72 0 129 -53t57 -135q0 -80 -55.5 -135.5t-135.5 -55.5q-78 0 -133 54.5t-55 134.5q0 82 58.5 136t134.5 54zM401 1333q-51 0 -81.5 -29.5t-30.5 -78.5t33.5 -83 t83.5 -34q47 0 80.5 34t33.5 81q0 49 -36 79.5t-83 30.5z" />
<glyph unicode="&#xe6;" horiz-adv-x="1343" d="M1276 258v-178q-45 -31 -78 -48.5t-96.5 -33.5t-138.5 -16q-111 0 -194 47t-116 96q-180 -143 -344 -143q-121 0 -184.5 69.5t-63.5 165.5q0 127 129 209q84 51 209 86l127 39v29q0 37 -3 59.5t-15 57t-47 53t-88 18.5q-156 0 -291 -152v220q141 102 295 102 q182 0 276 -119q41 35 68 54.5t85 42t120 22.5q166 0 258 -115.5t92 -294.5v-28h-567q6 -176 88 -271q74 -82 200 -82q132 0 279 111zM731 616h363q-8 57 -33 94.5t-58.5 50.5t-50 16t-32.5 3q-138 0 -189 -164zM526 162v297l-98 -39q-104 -41 -145 -80t-41 -88 q0 -53 35.5 -99.5t95.5 -46.5q53 1 153 56z" />
<glyph unicode="&#xe7;" horiz-adv-x="894" d="M801 872v-192q-141 88 -256 88q-98 0 -166 -54.5t-92.5 -121t-24.5 -135.5q0 -129 83 -217t230 -88q123 0 246 61v-180q-123 -45 -237 -49l-21 -43q57 -10 92 -37q55 -45 56 -115q0 -102 -95 -151q-61 -31 -219 -31q-35 0 -75 4v119q8 0 59 1t59 3q86 12 86 57 q0 61 -155 62l59 131q-115 29 -174 75q-178 141 -178 394q0 193 117.5 339t339.5 146q127 0 266 -66z" />
<glyph unicode="&#xe8;" horiz-adv-x="980" d="M897 268v-178q-168 -109 -360.5 -108.5t-317.5 129.5q-137 141 -137 354t121 343t309 130q158 0 262.5 -100.5t128.5 -255.5q10 -61 10 -138h-647q6 -117 82 -202.5t215 -85.5q180 -1 334 112zM270 553h463q-2 27 -8 53.5t-25.5 71.5t-68.5 73.5t-121 28.5 q-106 0 -176 -78q-50 -53 -64 -149zM508 1337l137 -301h-113l-229 301h205z" />
<glyph unicode="&#xe9;" horiz-adv-x="980" d="M897 268v-178q-168 -109 -360.5 -108.5t-317.5 129.5q-137 141 -137 354t121 343t309 130q158 0 262.5 -100.5t128.5 -255.5q10 -61 10 -138h-647q6 -117 82 -202.5t215 -85.5q180 -1 334 112zM270 553h463q-2 27 -8 53.5t-25.5 71.5t-68.5 73.5t-121 28.5 q-106 0 -176 -78q-50 -53 -64 -149zM727 1337l-225 -301h-113l135 301h203z" />
<glyph unicode="&#xea;" horiz-adv-x="980" d="M897 268v-178q-168 -109 -360.5 -108.5t-317.5 129.5q-137 141 -137 354t121 343t309 130q158 0 262.5 -100.5t128.5 -255.5q10 -61 10 -138h-647q6 -117 82 -202.5t215 -85.5q180 -1 334 112zM270 553h463q-2 27 -8 53.5t-25.5 71.5t-68.5 73.5t-121 28.5 q-106 0 -176 -78q-50 -53 -64 -149zM604 1346l193 -310h-113l-178 176l-170 -176h-109l187 310h190z" />
<glyph unicode="&#xeb;" horiz-adv-x="980" d="M897 268v-178q-168 -109 -360.5 -108.5t-317.5 129.5q-137 141 -137 354t121 343t309 130q158 0 262.5 -100.5t128.5 -255.5q10 -61 10 -138h-647q6 -117 82 -202.5t215 -85.5q180 -1 334 112zM270 553h463q-2 27 -8 53.5t-25.5 71.5t-68.5 73.5t-121 28.5 q-106 0 -176 -78q-50 -53 -64 -149zM319.5 1286q38.5 0 66.5 -27.5t28 -66.5t-28 -66.5t-66.5 -27.5t-66.5 27.5t-28 66.5t28 66.5t66.5 27.5zM704.5 1286q38.5 0 66.5 -27.5t28 -66.5t-28 -66.5t-66.5 -27.5t-66.5 27.5t-28 66.5t28 66.5t66.5 27.5z" />
<glyph unicode="&#xec;" horiz-adv-x="448" d="M315 920v-920h-184v920h184zM211 1337l137 -301h-112l-230 301h205z" />
<glyph unicode="&#xed;" horiz-adv-x="448" d="M315 920v-920h-184v920h184zM430 1337l-225 -301h-113l135 301h203z" />
<glyph unicode="&#xee;" horiz-adv-x="448" d="M315 920v-920h-184v920h184zM317 1346l193 -310h-113l-178 176l-170 -176h-108l186 310h190z" />
<glyph unicode="&#xef;" horiz-adv-x="448" d="M315 920v-920h-184v920h184zM33 1286q39 0 66.5 -27.5t27.5 -66.5t-27.5 -66.5t-66.5 -27.5t-66.5 27.5t-27.5 66.5t27.5 66.5t66.5 27.5zM418 1286q39 0 66.5 -27.5t27.5 -66.5t-27.5 -66.5t-66.5 -27.5t-66.5 27.5t-27.5 66.5t27.5 66.5t66.5 27.5z" />
<glyph unicode="&#xf0;" horiz-adv-x="1153" d="M618 1309l224 104l49 -110l-154 -76q139 -125 213 -246q127 -213 127 -459q0 -125 -33.5 -222t-86 -155.5t-122 -96.5t-134 -52t-132.5 -14q-221 0 -354 143t-133 328q0 115 51 222t170 185t281 78q102 0 213 -47q-45 84 -91.5 138t-136.5 120l-297 -137l-45 112l215 103 q-72 37 -170 59l95 127q128 -36 251 -104zM897 463q0 154 -96 232.5t-221 78.5q-139 0 -230.5 -95t-91.5 -226t91 -218.5t233 -87.5q139 0 227 84.5t88 231.5z" />
<glyph unicode="&#xf1;" d="M125 920h186v-117q121 135 277 135q63 0 137 -32t123 -115q51 -80 51 -267v-524h-184v524q0 86 -8.5 126t-40.5 79q-51 57 -138 57q-127 0 -217 -129v-657h-186v920zM297 1073h-84q2 131 52 183.5t112 52.5q53 0 145 -35q119 -45 140 -45q61 0 73 80h78 q-2 -125 -51 -180.5t-108.5 -55.5t-180.5 53q-61 27 -108 27q-60 0 -68 -80z" />
<glyph unicode="&#xf2;" horiz-adv-x="1130" d="M569 938q209 0 348.5 -133t139.5 -348q0 -227 -150.5 -351t-343.5 -124q-217 0 -353 139t-136 340t136 339t359 138zM559 774q-129 0 -214 -84t-85 -231q0 -158 94.5 -236t212.5 -78q135 0 219 88.5t84 227.5q0 158 -96 235.5t-215 77.5zM573 1337l138 -301h-113 l-229 301h204z" />
<glyph unicode="&#xf3;" horiz-adv-x="1130" d="M569 938q209 0 348.5 -133t139.5 -348q0 -227 -150.5 -351t-343.5 -124q-217 0 -353 139t-136 340t136 339t359 138zM559 774q-129 0 -214 -84t-85 -231q0 -158 94.5 -236t212.5 -78q135 0 219 88.5t84 227.5q0 158 -96 235.5t-215 77.5zM772 1337l-225 -301h-113 l135 301h203z" />
<glyph unicode="&#xf4;" horiz-adv-x="1130" d="M569 938q209 0 348.5 -133t139.5 -348q0 -227 -150.5 -351t-343.5 -124q-217 0 -353 139t-136 340t136 339t359 138zM559 774q-129 0 -214 -84t-85 -231q0 -158 94.5 -236t212.5 -78q135 0 219 88.5t84 227.5q0 158 -96 235.5t-215 77.5zM680 1346l192 -310h-112 l-178 176l-170 -176h-109l186 310h191z" />
<glyph unicode="&#xf5;" horiz-adv-x="1130" d="M569 938q209 0 348.5 -133t139.5 -348q0 -227 -150.5 -351t-343.5 -124q-217 0 -353 139t-136 340t136 339t359 138zM559 774q-129 0 -214 -84t-85 -231q0 -158 94.5 -236t212.5 -78q135 0 219 88.5t84 227.5q0 158 -96 235.5t-215 77.5zM371 1073h-84q2 131 52 183.5 t112 52.5q53 0 145 -35q119 -45 139 -45q61 0 74 80h78q-2 -125 -51.5 -180.5t-108.5 -55.5t-180 53q-61 27 -109 27q-59 0 -67 -80z" />
<glyph unicode="&#xf6;" horiz-adv-x="1130" d="M569 938q209 0 348.5 -133t139.5 -348q0 -227 -150.5 -351t-343.5 -124q-217 0 -353 139t-136 340t136 339t359 138zM559 774q-129 0 -214 -84t-85 -231q0 -158 94.5 -236t212.5 -78q135 0 219 88.5t84 227.5q0 158 -96 235.5t-215 77.5zM395 1286q39 0 66.5 -27.5 t27.5 -66.5t-27.5 -66.5t-66.5 -27.5t-66.5 27.5t-27.5 66.5t27.5 66.5t66.5 27.5zM780 1286q39 0 66.5 -27.5t27.5 -66.5t-27.5 -66.5t-66.5 -27.5t-66.5 27.5t-27.5 66.5t27.5 66.5t66.5 27.5z" />
<glyph unicode="&#xf7;" horiz-adv-x="1193" d="M1081 614h-968v168h968v-168zM598 1106q45 0 77 -32t32 -77t-32 -76.5t-77 -31.5t-77 31.5t-32 76.5t32 77t77 32zM598 508q45 0 77 -32t32 -77t-32 -76.5t-77 -31.5t-77 31.5t-32 76.5t32 77t77 32z" />
<glyph unicode="&#xf8;" horiz-adv-x="1130" d="M942 969l68 -62l-90 -106q139 -162 139 -346q0 -205 -142.5 -339t-363.5 -134q-150 0 -270 75l-115 -133l-68 62l111 129q-139 143 -139 344q0 195 134 337t357 142q162 0 285 -82zM805 670l-410 -480q72 -51 168 -51q125 0 222.5 87t97.5 231q0 115 -78 213zM326 248 l407 477q-78 47 -168 47q-141 0 -229 -94t-88 -225q0 -119 78 -205z" />
<glyph unicode="&#xf9;" d="M897 0h-184v117q-123 -135 -279 -135q-63 0 -137 31.5t-123 115.5q-51 80 -51 266v525h184v-525q0 -43 1 -68.5t11.5 -67.5t28 -65.5t55 -42t91.5 -18.5q127 0 219 129v658h184v-920zM500 1337l137 -301h-113l-229 301h205z" />
<glyph unicode="&#xfa;" d="M897 0h-184v117q-123 -135 -279 -135q-63 0 -137 31.5t-123 115.5q-51 80 -51 266v525h184v-525q0 -43 1 -68.5t11.5 -67.5t28 -65.5t55 -42t91.5 -18.5q127 0 219 129v658h184v-920zM719 1337l-225 -301h-113l135 301h203z" />
<glyph unicode="&#xfb;" d="M897 0h-184v117q-123 -135 -279 -135q-63 0 -137 31.5t-123 115.5q-51 80 -51 266v525h184v-525q0 -43 1 -68.5t11.5 -67.5t28 -65.5t55 -42t91.5 -18.5q127 0 219 129v658h184v-920zM606 1346l193 -310h-113l-178 176l-170 -176h-109l187 310h190z" />
<glyph unicode="&#xfc;" d="M897 0h-184v117q-123 -135 -279 -135q-63 0 -137 31.5t-123 115.5q-51 80 -51 266v525h184v-525q0 -43 1 -68.5t11.5 -67.5t28 -65.5t55 -42t91.5 -18.5q127 0 219 129v658h184v-920zM321.5 1286q38.5 0 66.5 -27.5t28 -66.5t-28 -66.5t-66.5 -27.5t-66.5 27.5t-28 66.5 t28 66.5t66.5 27.5zM706.5 1286q38.5 0 66.5 -27.5t28 -66.5t-28 -66.5t-66.5 -27.5t-66.5 27.5t-28 66.5t28 66.5t66.5 27.5z" />
<glyph unicode="&#xfd;" horiz-adv-x="894" d="M897 920l-651 -1391h-203l313 668l-356 723h207l248 -519l237 519h205zM653 1337l-225 -301h-113l136 301h202z" />
<glyph unicode="&#xfe;" d="M117 1397h186v-477h133q203 0 328 -78q109 -70 149.5 -178.5t40.5 -204.5q0 -205 -127 -341t-329 -136q-88 0 -195 41v-494h-186v1868zM432 750h-129v-566q84 -43 176 -43q125 0 207 87t82 231q0 82 -27.5 141t-62.5 87t-90.5 43t-84 17.5t-71.5 2.5z" />
<glyph unicode="&#xff;" horiz-adv-x="894" d="M897 920l-651 -1391h-203l313 668l-356 723h207l248 -519l237 519h205zM276.5 1286q38.5 0 66.5 -27.5t28 -66.5t-28 -66.5t-66.5 -27.5t-66.5 27.5t-28 66.5t28 66.5t66.5 27.5zM661.5 1286q38.5 0 66.5 -27.5t28 -66.5t-28 -66.5t-66.5 -27.5t-66.5 27.5t-28 66.5 t28 66.5t66.5 27.5z" />
<glyph unicode="&#x152;" horiz-adv-x="1916" d="M1792 1397v-174h-571v-426h551v-181h-551v-442h594v-174h-861q-197 0 -345 39t-281 151q-231 199 -232 502q0 381 324 586q86 55 194.5 83t173 32t166.5 4h838zM926 174h94v1049h-78q-160 0 -269.5 -32t-207.5 -122q-158 -145 -158 -371q0 -233 168 -379 q164 -145 451 -145z" />
<glyph unicode="&#x153;" horiz-adv-x="1705" d="M1634 264v-184q-51 -31 -82.5 -47.5t-100.5 -33.5t-148 -17q-231 0 -342 182q-147 -182 -402 -182q-221 0 -354 144t-133 333q0 193 137 336t362 143q82 0 149.5 -18.5t115 -53.5t72 -59.5t53.5 -58.5q49 82 129.5 136t187.5 54q96 0 178 -49t125 -139q47 -98 53 -250 h-577q2 -61 5 -94t18.5 -77t45.5 -83q78 -96 217 -96.5t291 114.5zM1075 618h375q-8 51 -33 89q-51 74 -145 73q-16 0 -34.5 -3t-52.5 -16t-64 -50.5t-46 -92.5zM567 760q-129 0 -217 -86t-88 -221q0 -131 90 -213t217 -82q141 0 220 88t79 213q0 129 -85 215t-216 86z" />
<glyph unicode="&#x178;" horiz-adv-x="1236" d="M1237 1397l-516 -658v-739h-205v739l-516 658h242l374 -482l379 482h242zM831.5 1761q45.5 0 77 -31.5t31.5 -76.5t-31.5 -77t-77 -32t-77 32t-31.5 77t31.5 76.5t77 31.5zM410 1761q45 0 76.5 -31.5t31.5 -76.5t-31.5 -77t-76.5 -32t-77 32t-32 77t32 76.5t77 31.5z" />
<glyph unicode="&#x2c6;" horiz-adv-x="681" d="M434 1346l193 -310h-113l-178 176l-170 -176h-109l187 310h190z" />
<glyph unicode="&#x2dc;" horiz-adv-x="681" d="M125 1073h-84q2 131 52 183.5t112 52.5q53 0 145 -35q119 -45 139 -45q61 0 74 80h78q-2 -125 -51 -180.5t-108.5 -55.5t-180.5 53q-61 27 -108 27q-60 0 -68 -80z" />
<glyph unicode="&#x2000;" horiz-adv-x="952" />
<glyph unicode="&#x2001;" horiz-adv-x="1906" />
<glyph unicode="&#x2002;" horiz-adv-x="952" />
<glyph unicode="&#x2003;" horiz-adv-x="1906" />
<glyph unicode="&#x2004;" horiz-adv-x="634" />
<glyph unicode="&#x2005;" horiz-adv-x="475" />
<glyph unicode="&#x2006;" horiz-adv-x="317" />
<glyph unicode="&#x2007;" horiz-adv-x="317" />
<glyph unicode="&#x2008;" horiz-adv-x="237" />
<glyph unicode="&#x2009;" horiz-adv-x="380" />
<glyph unicode="&#x200a;" horiz-adv-x="104" />
<glyph unicode="&#x2010;" horiz-adv-x="661" d="M580 551v-195h-498v195h498z" />
<glyph unicode="&#x2011;" horiz-adv-x="661" d="M580 551v-195h-498v195h498z" />
<glyph unicode="&#x2012;" horiz-adv-x="661" d="M580 551v-195h-498v195h498z" />
<glyph unicode="&#x2013;" d="M1042 578v-129h-1060v129h1060z" />
<glyph unicode="&#x2014;" horiz-adv-x="2048" d="M2066 584v-131h-2084v131h2084z" />
<glyph unicode="&#x2018;" horiz-adv-x="448" d="M350 1415v-37q-47 -47 -64.5 -93t-19.5 -114q106 -31 107 -131q0 -53 -37 -93t-88 -40q-63 0 -100 57.5t-37 135.5q0 16 1 34.5t14 63.5t35.5 82t71.5 76t117 59z" />
<glyph unicode="&#x2019;" horiz-adv-x="448" d="M100 907v39q47 45 63.5 91t20.5 114q-106 33 -106 131q0 53 36 93t87 40q63 0 101 -56t38 -136q0 -23 -5 -50.5t-23.5 -84t-74 -105.5t-137.5 -76z" />
<glyph unicode="&#x201a;" horiz-adv-x="448" d="M100 -244v37q78 78 84 207q-106 33 -106 131q0 53 37 93t86 40q63 0 101 -57t38 -135q0 -23 -5 -50.5t-23.5 -84t-74 -105.5t-137.5 -76z" />
<glyph unicode="&#x201c;" horiz-adv-x="874" d="M768 1415v-37q-49 -45 -65.5 -91t-20.5 -116q106 -31 106 -131q0 -53 -35.5 -93t-86.5 -40q-63 0 -101.5 57.5t-38.5 135.5q0 16 1 34.5t14.5 63.5t36 82t72.5 76t118 59zM307 1415v-37q-47 -45 -63.5 -91t-20.5 -116q106 -31 107 -131q0 -53 -36 -93t-87 -40 q-63 0 -101 57.5t-38 135.5q0 16 1 34.5t14 63.5t35.5 82t71.5 76t117 59z" />
<glyph unicode="&#x201d;" horiz-adv-x="874" d="M100 907v39q49 45 65.5 91t20.5 114q-106 33 -106 131q0 55 36 94t87 39q63 0 101 -56t38 -136q0 -23 -5 -50.5t-23.5 -84t-74 -105.5t-139.5 -76zM561 907v39q47 45 63.5 91t20.5 114q-106 33 -106 131q0 55 35.5 94t87.5 39q63 0 101 -56t38 -136q0 -23 -5 -50.5 t-23.5 -84t-74 -105.5t-137.5 -76z" />
<glyph unicode="&#x201e;" horiz-adv-x="917" d="M123 -244v37q47 47 64.5 94t19.5 113q-106 33 -107 131q0 53 37 93t88 40q63 0 100 -57t37 -135q0 -23 -5 -50.5t-23.5 -84t-73.5 -105.5t-137 -76zM582 -244v37q47 47 64.5 94t19.5 113q-104 33 -105 131q0 53 36 93t87 40q63 0 100 -57t37 -135q0 -23 -5 -50.5 t-23.5 -84t-73.5 -105.5t-137 -76z" />
<glyph unicode="&#x2022;" horiz-adv-x="724" d="M109 698q0 106 74.5 180t179 74t179 -74.5t74.5 -179.5q0 -106 -74.5 -180t-179 -74t-179 75t-74.5 179z" />
<glyph unicode="&#x2026;" horiz-adv-x="2048" d="M340 227q51 0 87 -35.5t36 -87t-36 -87t-87 -35.5t-87 35.5t-36 87t36 87t87 35.5zM1024 227q51 0 87 -35.5t36 -87t-36 -87t-87 -35.5t-87 35.5t-36 87t36 87t87 35.5zM1708 -18q-51 0 -87 35.5t-36 87t36 87t87 35.5t87 -35.5t36 -87t-36 -87t-87 -35.5z" />
<glyph unicode="&#x202f;" horiz-adv-x="380" />
<glyph unicode="&#x2039;" horiz-adv-x="638" d="M555 0h-180l-301 461l301 459h180l-303 -459z" />
<glyph unicode="&#x203a;" horiz-adv-x="638" d="M86 920h178l303 -461l-303 -459h-178l303 459z" />
<glyph unicode="&#x205f;" horiz-adv-x="475" />
<glyph unicode="&#x20ac;" horiz-adv-x="1249" d="M426 909h594l-29 -155h-590q-4 -45 0 -111h570l-29 -156h-516q45 -166 145.5 -243.5t231.5 -77.5q174 0 346 137v-219q-152 -102 -352 -102q-125 0 -226.5 42t-160 98t-102.5 133t-61.5 129t-27.5 103h-162l29 156h115q-2 39 2 111h-146l27 155h141q18 84 59.5 167 t109 162t175 128t238.5 49q154 0 350 -67l-39 -191q-182 74 -317 74q-279 0 -375 -322z" />
<glyph unicode="&#x2122;" horiz-adv-x="2048" d="M492 584v692h-267v121h666v-121h-264v-692h-135zM983 584v813h201l205 -652l198 652h197v-813h-125v682l-209 -682h-123l-219 692v-692h-125z" />
<glyph unicode="&#xe000;" horiz-adv-x="920" d="M0 920h920v-920h-920v920z" />
<glyph unicode="&#xfb01;" d="M551 920v-154h-205v-766h-182v766h-137v154h137q-6 231 90 363t299 132q164 0 247 -84t87 -209h-172l-13.5 31t-18.5 32.5t-30.5 36t-43 22.5t-62.5 11q-70 0 -115 -31.5t-61.5 -89t-21.5 -104.5t-3 -110h205zM887 920v-920h-172v920h172z" />
<glyph unicode="&#xfb02;" d="M547 920v-154h-209v-766h-178v766h-142v154h142v45q0 197 63 297q104 154 275 153q63 0 123 -18v-166q-47 14 -82 14q-123 0 -172 -88q-29 -51 -29 -192v-45h209zM895 1397v-1397h-184v1397h184z" />
<glyph unicode="&#xfb03;" horiz-adv-x="1556" d="M1079 920v-154h-207v-766h-182v766h-371v-766h-180v766h-131v154h131v51q0 201 64 299q96 145 280 145q63 0 123 -18v-168q-66 10 -98 10q-53 0 -91 -18.5t-56.5 -41t-28.5 -65.5t-11.5 -69.5t-1.5 -73.5v-51h371q8 496 387 495q178 0 258 -88t86 -205h-180 q-10 27 -18.5 44.5t-26.5 41t-50 34.5t-75 11q-68 0 -113 -32.5t-61 -91t-20.5 -103.5t-4.5 -106h207zM1427 920v-920h-180v920h180z" />
<glyph unicode="&#xfb04;" horiz-adv-x="1556" d="M1427 1397v-1397h-178v1397h178zM1090 920v-158h-209v-762h-183v762h-366v-762h-182v762h-130v158h130v41q0 76 2 113.5t16 91t43 100.5q43 72 119 110.5t164 38.5q66 0 112 -18v-168q-41 10 -90 10q-53 0 -90 -17.5t-55.5 -39t-27.5 -65.5t-10 -72.5t-1 -83.5v-41h366 v114q0 156 88 268.5t254 112.5q57 0 117 -18v-168q-66 10 -108 10q-106 0 -150 -92q-18 -41 -18 -186v-41h209z" />
</font>
</defs>
</svg>
